<svg width="33" height="33" viewBox="0 0 33 33" fill="none" xmlns="http://www.w3.org/2000/svg">
<path fill-rule="evenodd" clip-rule="evenodd" d="M16.9891 0.987793C25.8256 0.987793 32.9891 8.15128 32.9891 16.9876C32.9891 25.8243 25.8256 32.9878 16.9891 32.9878C8.15254 32.9878 0.98912 25.8243 0.98912 16.9876C0.98912 8.15128 8.15254 0.987793 16.9891 0.987793Z" fill="#070716"/>
<g clip-path="url(#clip0_106559_16)">
<path d="M19.3285 10.9887H20.9474V8.12675C20.6681 8.08775 19.7076 8 18.589 8C16.255 8 14.6561 9.49025 14.6561 12.2292V14.75H12.0805V17.9495H14.6561V26H17.8139V17.9503H20.2854L20.6777 14.7508H17.8132V12.5465C17.8139 11.6217 18.0592 10.9887 19.3285 10.9887Z" fill="white"/>
</g>
<defs>
<clipPath id="clip0_106559_16">
<rect width="17.7323" height="18" fill="white" transform="translate(7.50923 8)"/>
</clipPath>
</defs>
</svg>
